<svg width="42" height="42" viewBox="0 0 42 42" fill="none" xmlns="http://www.w3.org/2000/svg">
<circle cx="21" cy="21" r="21" fill="#007AFE"/>
<path d="M8 21C8 21.7721 8.64606 22.4024 9.40242 22.4024H19.5976V32.5975C19.5976 33.3539 20.2279 34 21 34C21.7721 34 22.4182 33.3539 22.4182 32.5975V22.4024H32.5975C33.3539 22.4024 34 21.7721 34 21C34 20.2279 33.3539 19.5818 32.5975 19.5818H22.4182V9.40242C22.4182 8.64606 21.7721 8 21 8C20.2279 8 19.5976 8.64606 19.5976 9.40242V19.5818H9.40242C8.64606 19.5818 8 20.2279 8 21Z" fill="white"/>
</svg>
