<svg width="17" height="24" viewBox="0 0 17 24" fill="none" xmlns="http://www.w3.org/2000/svg">
<g clip-path="url(#clip0_9_197)">
<path d="M0 11.9931C0 12.3385 0.120567 12.6425 0.375099 12.905L10.9984 23.6132C11.2261 23.8618 11.5209 23.9861 11.8692 23.9861C12.5658 23.9861 13.1016 23.4474 13.1016 22.7289C13.1016 22.3695 12.9543 22.0656 12.7399 21.8307L2.98738 11.9931L12.7399 2.15544C12.9543 1.92055 13.1016 1.60276 13.1016 1.25734C13.1016 0.538859 12.5658 0 11.8692 0C11.5209 0 11.2261 0.124352 10.9984 0.359239L0.375099 11.0812C0.120567 11.3299 0 11.6477 0 11.9931Z" fill="white"/>
</g>
<defs>
<clipPath id="clip0_9_197">
<rect width="17" height="24" fill="white"/>
</clipPath>
</defs>
</svg>
